<svg width="53" height="47" viewBox="0 0 53 47" fill="none" xmlns="http://www.w3.org/2000/svg">
<path fill-rule="evenodd" clip-rule="evenodd" d="M44.465 10.686C44.913 10.505 45.377 10.425 45.845 10.635C45.868 10.645 45.892 10.654 45.915 10.665C46.029 10.715 46.105 10.82 46.195 10.896C46.29 10.977 46.32 11.145 46.355 11.281C46.383 11.386 46.404 11.484 46.525 11.541C46.465 11.614 46.391 11.679 46.438 11.77C46.474 11.84 46.525 11.903 46.569 11.97V12.241C46.446 12.245 46.425 12.344 46.429 12.461L46.444 12.778L46.544 12.768C46.544 12.867 46.567 12.968 46.537 13.048C46.503 13.141 46.517 13.228 46.517 13.314C46.52 13.411 46.547 13.508 46.566 13.613C46.524 13.656 46.397 13.617 46.415 13.729C46.425 13.789 46.464 13.845 46.493 13.909C46.401 14.002 46.401 14.002 46.465 14.114C46.44 14.164 46.4 14.209 46.398 14.254C46.391 14.548 46.388 14.841 46.394 15.134C46.395 15.209 46.43 15.283 46.457 15.387C46.422 15.429 46.364 15.502 46.416 15.603C46.426 15.624 46.418 15.661 46.408 15.687C46.368 15.793 46.398 15.869 46.499 15.91C46.489 15.965 46.464 16.017 46.476 16.058C46.498 16.128 46.506 16.186 46.464 16.252C46.447 16.278 46.454 16.322 46.458 16.358C46.468 16.432 46.478 16.495 46.411 16.562C46.352 16.622 46.388 16.679 46.486 16.702L46.374 16.904L46.485 17.01C46.43 17.062 46.427 17.076 46.417 17.197C46.411 17.262 46.368 17.332 46.461 17.373C46.476 17.38 46.497 17.404 46.495 17.411C46.438 17.541 46.557 17.58 46.629 17.648C46.609 17.679 46.598 17.708 46.577 17.73C46.514 17.797 46.466 17.854 46.61 17.878C46.628 17.881 46.636 17.937 46.648 17.968C46.676 18.042 46.676 18.134 46.781 18.16C46.807 18.167 46.831 18.194 46.85 18.217C46.992 18.391 47.123 18.437 47.35 18.348C47.673 18.222 47.995 18.091 48.305 17.938C48.773 17.706 49.229 17.451 49.692 17.21C50.156 16.97 50.642 16.886 51.16 17.001C51.243 17.02 51.337 16.996 51.418 17.018C51.512 17.043 51.614 17.08 51.682 17.143C51.859 17.307 51.978 17.512 52.05 17.742C52.058 17.768 52.083 17.789 52.1 17.812V17.887C52.013 18.006 52.013 18.006 52.1 18.112V18.187C52.072 18.193 52.028 18.189 52.017 18.207C51.96 18.291 51.9 18.377 51.861 18.471C51.649 18.976 51.258 19.311 50.798 19.586C50.36 19.847 49.872 19.978 49.391 20.133C48.821 20.316 48.248 20.497 47.688 20.709C47.099 20.932 46.52 21.18 45.945 21.437C45.555 21.611 45.177 21.817 44.797 22.013C44.35 22.244 43.905 22.48 43.459 22.715C42.902 23.009 42.343 23.298 41.789 23.598C40.96 24.048 40.133 24.5 39.309 24.962C38.751 25.276 38.201 25.606 37.647 25.93C37.174 26.207 36.697 26.479 36.229 26.764C35.816 27.016 35.41 27.282 35.004 27.545C34.827 27.66 34.668 27.807 34.481 27.903C34.017 28.141 33.594 28.441 33.163 28.729C32.965 28.862 32.773 29.002 32.578 29.139C32.558 29.153 32.528 29.168 32.522 29.188C32.479 29.338 32.339 29.384 32.225 29.453C32.092 29.534 31.995 29.615 32.006 29.798C32.018 30.002 31.985 30.209 31.972 30.415C31.97 30.439 31.962 30.473 31.974 30.488C32.04 30.568 31.99 30.623 31.944 30.685C31.924 30.713 31.897 30.77 31.908 30.782C32.023 30.909 31.914 31.027 31.9 31.158C31.998 31.244 31.991 31.348 31.96 31.475C31.925 31.609 31.825 31.753 31.953 31.897C31.958 31.904 31.9 31.966 31.853 32.026C31.855 32.032 31.853 32.08 31.876 32.114C31.94 32.214 31.951 32.308 31.889 32.411C31.876 32.435 31.869 32.481 31.883 32.499C31.957 32.606 31.903 32.708 31.893 32.817C31.871 33.069 31.875 33.324 31.883 33.577C31.887 33.674 31.866 33.779 31.926 33.872C31.94 33.894 31.937 33.949 31.921 33.962C31.828 34.034 31.844 34.112 31.872 34.194C31.894 34.254 31.907 34.359 31.905 34.424C31.895 34.76 31.883 35.096 31.871 35.433C31.868 35.53 31.871 35.63 31.851 35.725C31.838 35.792 31.834 35.844 31.886 35.894C31.896 35.904 31.899 35.929 31.897 35.947C31.882 36.089 31.853 36.231 31.85 36.374C31.847 36.506 31.87 36.639 31.88 36.754C31.835 36.821 31.776 36.878 31.756 36.947C31.735 37.019 31.751 37.102 31.751 37.182C31.798 37.212 31.851 37.242 31.897 37.279C31.912 37.29 31.907 37.324 31.912 37.354L31.742 37.395L31.862 37.555C31.856 37.599 31.835 37.647 31.85 37.667C31.916 37.75 31.895 37.824 31.856 37.907C31.811 38.005 31.779 38.107 31.736 38.222C31.778 38.335 31.831 38.468 31.875 38.605C31.886 38.64 31.883 38.704 31.861 38.721C31.693 38.854 31.737 38.996 31.83 39.144L31.878 39.22C31.738 39.27 31.688 39.381 31.742 39.51C31.749 39.525 31.766 39.549 31.777 39.549C31.882 39.545 31.877 39.645 31.93 39.701L31.821 39.762C31.874 39.975 31.874 39.975 31.809 40.117L32.021 40.339L31.918 40.604L32.038 40.619C31.981 40.709 31.987 40.791 32.081 40.85C32.042 40.981 32.158 41.1 32.104 41.235L31.981 41.289C32.071 41.379 32.036 41.462 32.005 41.552C31.972 41.648 32.049 41.778 32.14 41.767C32.25 41.753 32.26 41.824 32.255 41.881C32.236 42.084 32.31 42.256 32.42 42.427C32.364 42.557 32.314 42.692 32.149 42.737L32.289 42.76L32.293 42.79L32.167 42.845C32.172 42.928 32.181 43.024 32.184 43.119C32.187 43.221 32.241 43.264 32.34 43.263C32.432 43.262 32.533 43.326 32.503 43.391C32.453 43.496 32.536 43.505 32.578 43.563C32.475 43.619 32.566 43.821 32.368 43.828L32.473 43.868L32.384 44.025C32.439 44.108 32.528 44.169 32.547 44.282C32.554 44.32 32.647 44.344 32.711 44.38C32.635 44.457 32.564 44.527 32.584 44.639C32.587 44.659 32.55 44.682 32.537 44.707C32.512 44.753 32.491 44.802 32.465 44.856L32.631 44.951C32.568 45.008 32.494 45.056 32.446 45.123C32.399 45.188 32.392 45.28 32.346 45.344C32.273 45.444 32.195 45.552 32.094 45.62C31.94 45.725 31.776 45.815 31.613 45.907C31.508 45.966 31.391 46.004 31.271 46.013C31.119 46.023 30.986 46.025 30.836 45.981C30.79 45.964 30.746 45.943 30.698 45.931C30.418 45.857 30.173 45.729 29.97 45.515C29.818 45.355 29.768 45.156 29.703 44.963C29.51 44.397 29.49 43.813 29.525 43.223C29.549 42.793 29.544 42.361 29.559 41.931C29.569 41.607 29.596 41.283 29.609 40.959C29.62 40.666 29.619 40.373 29.628 40.079C29.635 39.825 29.649 39.571 29.656 39.317C29.662 39.093 29.668 38.87 29.664 38.646C29.661 38.472 29.636 38.298 29.636 38.124C29.637 37.924 29.66 37.726 29.666 37.527C29.669 37.448 29.656 37.369 29.651 37.29C29.648 37.26 29.63 37.216 29.643 37.203C29.747 37.095 29.7 36.965 29.701 36.846C29.705 36.171 29.704 35.496 29.705 34.822L29.707 33.137C29.707 32.693 29.707 32.249 29.711 31.805C29.713 31.657 29.73 31.509 29.736 31.361C29.737 31.319 29.726 31.277 29.718 31.219C29.494 31.304 29.301 31.422 29.12 31.551C28.778 31.795 28.445 32.053 28.11 32.308C27.761 32.574 27.413 32.843 27.067 33.113L26.327 33.696C26.073 33.893 25.811 34.078 25.563 34.281C25.129 34.634 24.705 34.999 24.273 35.353C23.975 35.595 23.666 35.823 23.369 36.066L22.03 37.171C21.715 37.429 21.395 37.682 21.077 37.937C21.062 37.949 21.046 37.959 21.033 37.972C20.857 38.151 20.681 38.329 20.508 38.509C20.426 38.595 20.358 38.694 20.269 38.772C20.068 38.949 19.851 39.11 19.653 39.292C19.441 39.485 19.245 39.696 19.04 39.897C18.92 40.015 18.792 40.124 18.675 40.244C18.61 40.311 18.561 40.392 18.502 40.464C18.442 40.535 18.38 40.604 18.317 40.671C18.223 40.771 18.129 40.871 18.032 40.968L16.762 42.224C16.704 42.28 16.656 42.346 16.602 42.407L16.167 42.894C16.117 42.95 16.065 43.004 16.012 43.058L15.75 43.323C15.71 43.363 15.666 43.4 15.626 43.439C15.46 43.601 15.296 43.766 15.129 43.926L14.636 44.386C14.482 44.533 14.309 44.62 14.088 44.628C13.715 44.641 13.36 44.603 13.032 44.405C12.852 44.297 12.725 44.155 12.63 43.973C12.518 43.757 12.475 43.521 12.463 43.287C12.455 43.133 12.48 42.961 12.583 42.824C12.735 42.624 12.886 42.424 13.04 42.226C13.454 41.692 13.962 41.248 14.451 40.786C14.799 40.459 15.154 40.139 15.504 39.815C15.794 39.545 16.078 39.269 16.373 39.005C16.686 38.723 17.007 38.45 17.327 38.177C17.691 37.867 18.057 37.56 18.425 37.257C18.731 37.004 19.045 36.764 19.349 36.509C19.594 36.304 19.823 36.081 20.066 35.873C20.222 35.74 20.392 35.623 20.553 35.494L21.463 34.761L22.216 34.159C22.396 34.014 22.578 33.869 22.761 33.726C22.884 33.629 23.011 33.537 23.133 33.438C23.23 33.358 23.313 33.261 23.413 33.188L24.659 32.306C24.981 32.075 25.293 31.831 25.614 31.599L26.476 30.99C26.751 30.793 27.024 30.593 27.296 30.39C27.754 30.046 28.206 29.695 28.669 29.356C28.978 29.129 29.297 28.916 29.615 28.701C29.667 28.667 29.702 28.611 29.708 28.549C29.733 28.305 29.74 28.061 29.714 27.816C29.701 27.687 29.717 27.556 29.709 27.426C29.706 27.377 29.68 27.302 29.647 27.29C29.609 27.277 29.545 27.314 29.502 27.343C29.268 27.496 29.037 27.654 28.805 27.81C28.785 27.824 28.747 27.836 28.722 27.838C28.545 27.855 28.39 27.937 28.23 28.003C28.185 28.021 28.144 28.051 28.099 28.069C28.066 28.084 28.021 28.106 27.995 28.095C27.878 28.046 27.775 28.099 27.667 28.123C27.364 28.192 27.057 28.235 26.747 28.216C26.223 28.184 25.787 27.971 25.464 27.561C25.306 27.361 25.241 27.117 25.185 26.872C25.07 26.366 25.105 25.852 25.109 25.34C25.11 25.096 25.117 24.852 25.111 24.608C25.108 24.472 25.08 24.338 25.069 24.202C25.063 24.14 25.056 24.072 25.076 24.016C25.21 23.622 25.152 23.209 25.208 22.809C25.296 22.174 25.378 21.537 25.58 20.923C25.765 20.361 26.028 19.837 26.382 19.359C26.538 19.148 26.678 18.919 26.861 18.733C27.057 18.533 27.296 18.374 27.517 18.2C27.551 18.173 27.6 18.163 27.631 18.133C27.91 17.868 28.279 17.813 28.628 17.711C28.801 17.661 28.975 17.691 29.134 17.761C29.203 17.792 29.286 17.875 29.314 17.945C29.362 18.065 29.383 18.191 29.334 18.331C29.297 18.436 29.3 18.559 29.276 18.674C29.226 18.907 29.069 19.081 28.964 19.284C28.933 19.344 28.852 19.381 28.792 19.426C28.694 19.498 28.614 19.582 28.574 19.701C28.558 19.747 28.534 19.801 28.496 19.826C28.391 19.899 28.358 20.001 28.307 20.111C28.257 20.221 28.185 20.333 28.122 20.443C28.08 20.517 28.052 20.601 28.03 20.683C28 20.791 27.985 20.898 27.9 20.987C27.846 21.042 27.82 21.128 27.797 21.205C27.742 21.391 27.712 21.585 27.643 21.765C27.575 21.941 27.565 22.125 27.535 22.307C27.52 22.398 27.537 22.49 27.575 22.574C27.63 22.694 27.638 22.798 27.578 22.916C27.546 22.981 27.538 23.059 27.528 23.132C27.506 23.28 27.487 23.428 27.473 23.577C27.464 23.676 27.466 23.777 27.463 23.876C27.463 23.92 27.473 23.966 27.463 24.006C27.372 24.341 27.424 24.68 27.455 25.013C27.472 25.187 27.546 25.363 27.631 25.521C27.739 25.723 27.928 25.822 28.168 25.801C28.596 25.763 28.942 25.573 29.242 25.268C29.524 24.982 29.635 24.631 29.696 24.258C29.783 23.722 29.869 23.186 29.916 22.644C29.944 22.321 30.004 22 30.02 21.676C30.029 21.511 30.081 21.34 30.01 21.174C30.004 21.161 30.007 21.139 30.015 21.127C30.125 20.976 30.1 20.797 30.115 20.627C30.145 20.323 30.175 20.017 30.196 19.713C30.229 19.245 30.25 18.777 30.286 18.31C30.31 18.005 30.335 17.698 30.392 17.398C30.47 16.992 30.746 16.744 31.118 16.572C31.388 16.446 31.666 16.427 31.95 16.462C32.136 16.484 32.305 16.555 32.444 16.705C32.594 16.868 32.667 17.093 32.638 17.312C32.622 17.435 32.626 17.562 32.627 17.688C32.627 17.728 32.651 17.769 32.657 17.811C32.663 17.842 32.662 17.875 32.657 17.906C32.653 17.922 32.623 17.94 32.627 17.95C32.705 18.18 32.514 18.406 32.619 18.635C32.531 18.854 32.641 19.084 32.549 19.318C32.461 19.538 32.477 19.802 32.46 20.048C32.43 20.476 32.415 20.907 32.382 21.336C32.349 21.766 32.301 22.193 32.262 22.622C32.244 22.809 32.234 22.996 32.217 23.183C32.208 23.281 32.179 23.378 32.177 23.476C32.174 23.754 32.157 24.032 32.127 24.309C32.111 24.456 32.11 24.602 32.155 24.752C32.185 24.852 32.144 24.97 32.135 25.08C32.125 25.234 32.085 25.393 32.113 25.54C32.145 25.714 32.1 25.872 32.083 26.037C32.07 26.172 32.065 26.308 32.062 26.444C32.058 26.605 32.06 26.766 32.062 26.927C32.063 26.969 32.076 27.01 32.088 27.079C32.157 27.047 32.214 27.027 32.263 26.995C32.536 26.817 32.804 26.629 33.082 26.455C33.583 26.142 34.09 25.837 34.594 25.528C34.99 25.284 35.387 25.041 35.781 24.795C36.037 24.636 36.286 24.467 36.544 24.313C36.684 24.229 36.834 24.162 36.984 24.093C37.154 24.013 37.319 23.928 37.455 23.794C37.479 23.771 37.518 23.76 37.552 23.749C37.627 23.724 37.712 23.716 37.779 23.677C38.258 23.401 38.732 23.116 39.211 22.839C39.625 22.6 40.043 22.367 40.46 22.133L42.586 20.944L44.07 20.112C44.213 20.032 44.353 19.948 44.494 19.864C44.532 19.842 44.57 19.818 44.603 19.789C44.686 19.719 44.677 19.682 44.583 19.619C44.474 19.546 44.356 19.478 44.272 19.382C44.121 19.21 44.027 19.004 44.02 18.772C44.012 18.497 44.016 18.222 44.01 17.947C44.003 17.612 44.065 17.283 44.085 16.951C44.088 16.907 44.097 16.859 44.084 16.821C44.002 16.583 44.039 16.353 44.115 16.123C44.125 16.094 44.126 16.063 44.117 16.034C44.078 15.917 44.034 15.8 44.121 15.684C44.085 15.303 44.284 14.938 44.064 14.538C43.938 14.308 43.962 14.033 44.086 13.804C44.249 13.505 44.164 13.315 44.022 13.154C43.986 13.114 43.935 13.064 43.886 13.059C43.641 13.032 43.391 12.953 43.157 13.115C43.004 13.222 42.833 13.303 42.688 13.419C42.593 13.497 42.523 13.601 42.471 13.712C42.435 13.785 42.388 13.831 42.329 13.878C42.209 13.973 42.09 14.063 42.042 14.228C42.021 14.303 41.912 14.354 41.83 14.425C41.816 14.554 41.814 14.705 41.71 14.827C41.69 14.851 41.693 14.897 41.689 14.932C41.673 15.058 41.715 15.195 41.619 15.307C41.611 15.317 41.616 15.342 41.619 15.359C41.642 15.467 41.643 15.467 41.525 15.447L41.471 15.569L41.554 15.624V15.871C41.509 15.891 41.439 15.901 41.415 15.94C41.391 15.978 41.403 16.047 41.415 16.098C41.433 16.176 41.462 16.251 41.491 16.325C41.522 16.404 41.513 16.465 41.448 16.526C41.386 16.585 41.328 16.654 41.29 16.73C41.27 16.77 41.274 16.862 41.302 16.88C41.422 16.961 41.398 17.084 41.418 17.195L41.441 17.341C41.401 17.358 41.361 17.426 41.299 17.345C41.273 17.456 41.181 17.555 41.281 17.671C41.286 17.676 41.28 17.695 41.274 17.705C41.144 17.951 41.227 18.217 41.202 18.473C41.193 18.57 41.284 18.533 41.325 18.577C41.249 18.692 41.133 18.806 41.277 18.941L41.209 19.005L41.339 19.11C41.313 19.198 41.281 19.278 41.267 19.361C41.254 19.436 41.291 19.544 41.251 19.587C41.164 19.681 41.253 19.729 41.266 19.799C41.276 19.847 41.263 19.907 41.24 19.952C41.163 20.106 41.077 20.256 40.995 20.407C40.992 20.412 40.986 20.417 40.985 20.423C40.95 20.723 40.695 20.837 40.485 20.977C40.315 21.091 40.117 21.167 39.93 21.255C39.703 21.362 39.461 21.362 39.224 21.314C38.926 21.254 38.803 21.061 38.753 20.72C38.733 20.592 38.733 20.462 38.738 20.332C38.771 19.648 38.812 18.965 38.846 18.282C38.861 17.988 38.865 17.695 38.879 17.402C38.903 16.916 38.933 16.43 38.957 15.945C38.977 15.564 38.991 15.183 39.01 14.802C39.021 14.571 39.021 14.338 39.054 14.109C39.119 13.665 39.294 13.249 39.616 12.942C40.01 12.565 40.489 12.327 41.07 12.403C41.129 12.411 41.218 12.395 41.269 12.363C41.401 12.283 41.509 12.303 41.652 12.365C41.832 12.443 42.04 12.463 42.237 12.388C42.527 12.278 42.772 12.109 42.957 11.866C43.002 11.808 43.076 11.716 43.127 11.664C43.291 11.501 43.453 11.337 43.619 11.177C43.663 11.133 43.714 11.097 43.769 11.067C43.999 10.937 44.221 10.784 44.465 10.686ZM19.313 0.610006C19.402 0.594006 19.624 0.600006 19.716 0.608006C19.876 0.622006 20.063 0.675006 20.24 0.728006C20.868 0.918006 21.276 1.31601 21.453 1.94601C21.523 2.19501 21.553 2.44201 21.543 2.69801C21.533 3.00601 21.431 3.28201 21.261 3.53601C21.169 3.67201 21.067 3.80101 20.973 3.93601C20.956 3.96001 20.941 3.99601 20.946 4.02201C20.967 4.14401 20.872 4.22201 20.832 4.31901C20.822 4.34101 20.785 4.35701 20.757 4.36701C20.634 4.41201 20.52 4.46001 20.5 4.61401C20.492 4.67101 20.451 4.67601 20.392 4.64601C20.265 4.76701 20.131 4.87901 20.016 5.00701C19.676 5.38801 19.353 5.78301 19.082 6.21501C18.988 6.36501 18.928 6.53501 18.825 6.67601C18.372 7.29801 18.145 8.02601 17.825 8.70901C17.639 9.10701 17.475 9.51401 17.295 9.91501C17.245 10.029 17.215 10.14 17.221 10.265C17.224 10.331 17.202 10.402 17.176 10.464C17.139 10.551 17.085 10.63 17.044 10.716C16.917 10.978 16.788 11.238 16.67 11.504C16.611 11.637 16.565 11.777 16.534 11.919C16.499 12.073 16.448 12.214 16.363 12.351C16.29 12.468 16.256 12.609 16.211 12.742C16.149 12.926 16.097 13.113 16.035 13.297C15.972 13.482 15.897 13.663 15.838 13.849C15.788 14.011 15.748 14.176 15.711 14.342C15.647 14.634 15.583 14.924 15.445 15.192C15.409 15.262 15.411 15.329 15.451 15.392C15.497 15.462 15.471 15.51 15.431 15.579C15.337 15.746 15.232 15.905 15.191 16.104C15.137 16.362 15.088 16.625 14.949 16.861C14.876 16.985 14.829 17.113 14.819 17.268C14.801 17.538 14.733 17.804 14.692 18.072C14.682 18.138 14.697 18.208 14.697 18.276C14.697 18.458 14.619 18.619 14.548 18.781C14.536 18.809 14.515 18.843 14.488 18.853C14.341 18.913 14.315 19.047 14.281 19.177L14.165 19.617C14.158 19.641 14.149 19.671 14.131 19.684C14.007 19.778 14.026 19.936 13.957 20.055C13.914 20.131 13.9 20.222 13.861 20.301C13.75 20.521 13.681 20.755 13.621 20.991L13.506 21.462C13.383 21.935 13.284 22.414 13.174 22.889C13.087 23.259 12.997 23.629 12.914 24.001C12.908 24.027 12.904 24.053 12.904 24.08L12.897 24.241C12.894 24.278 12.894 24.324 12.873 24.349C12.813 24.42 12.884 24.483 12.873 24.547C12.863 24.608 12.783 24.647 12.834 24.734C12.855 24.77 12.821 24.861 12.784 24.904C12.64 25.066 12.578 25.305 12.626 25.505C12.683 25.747 12.678 25.981 12.506 26.19C12.461 26.244 12.418 26.336 12.434 26.395C12.491 26.599 12.39 26.768 12.332 26.943C12.304 27.028 12.278 27.105 12.28 27.196C12.283 27.37 12.276 27.545 12.264 27.718C12.261 27.763 12.231 27.813 12.199 27.846C12.137 27.911 12.103 27.974 12.129 28.068C12.145 28.119 12.141 28.181 12.129 28.235C12.066 28.53 11.993 28.823 11.933 29.119C11.905 29.255 11.899 29.395 11.881 29.534C11.866 29.646 11.941 29.688 12.045 29.72C12.037 29.881 12.065 30.049 12.014 30.188C11.949 30.364 11.968 30.568 11.802 30.717C11.712 30.799 11.675 30.94 11.672 31.084C11.665 31.304 11.622 31.524 11.594 31.745C11.586 31.808 11.577 31.87 11.57 31.933C11.56 32.029 11.57 32.106 11.657 32.183C11.777 32.291 11.729 32.384 11.52 32.463C11.55 32.655 11.454 32.823 11.398 33.003C11.336 33.202 11.322 33.415 11.294 33.623C11.223 34.158 11.152 34.693 11.085 35.23C11.011 35.823 10.945 36.416 10.868 37.009C10.793 37.587 10.711 38.166 10.628 38.744C10.566 39.184 10.506 39.624 10.428 40.062C10.368 40.398 10.292 40.732 10.206 41.063C10.071 41.584 9.58396 41.828 9.15696 41.883C8.65596 41.949 8.19896 41.521 8.12096 41.114C8.03296 40.66 7.90696 40.213 7.81596 39.759C7.73796 39.373 7.68796 38.982 7.62196 38.594C7.56196 38.238 7.49996 37.884 7.43696 37.529C7.43096 37.492 7.41696 37.453 7.39496 37.424C7.35196 37.367 7.34196 37.316 7.37296 37.248C7.38996 37.212 7.38296 37.159 7.37296 37.118C7.28996 36.792 7.25496 36.458 7.20196 36.128C7.18796 36.044 7.15396 35.981 7.05396 35.981C7.18196 35.762 7.16996 35.697 6.96596 35.534C6.97296 35.492 6.97596 35.442 6.99196 35.395C7.03696 35.255 7.02796 35.116 7.00596 34.979L6.95596 34.704C6.87096 34.172 6.78496 33.64 6.70096 33.107C6.64096 32.725 6.58596 32.343 6.52896 31.961L6.29996 30.42C6.24296 30.043 6.18096 29.667 6.12496 29.29C6.06496 28.894 6.00896 28.497 5.95196 28.101C5.94696 28.063 5.95396 28.016 5.93296 27.99C5.79596 27.816 5.83896 27.615 5.83496 27.42C5.83196 27.313 5.81896 27.206 5.80296 27.1C5.72696 26.597 5.64796 26.096 5.56896 25.594C5.54296 25.425 5.52596 25.254 5.48696 25.089C5.46896 25.014 5.41696 24.94 5.36396 24.88C5.30896 24.818 5.28596 24.76 5.29196 24.675C5.29796 24.599 5.26696 24.52 5.26296 24.443C5.25896 24.353 5.26396 24.261 5.27296 24.171C5.27696 24.111 5.29496 24.053 5.30696 23.995C5.24696 23.915 5.19696 24.002 5.13096 24.021C5.12696 23.98 5.11296 23.946 5.12396 23.924C5.16696 23.833 5.13996 23.759 5.06496 23.708C4.99396 23.66 4.91296 23.621 4.83196 23.594C4.81196 23.588 4.75796 23.639 4.74196 23.674C4.69396 23.783 4.66196 23.9 4.61096 24.008C4.58596 24.06 4.53396 24.099 4.49296 24.143C4.47696 24.159 4.43796 24.175 4.43996 24.185C4.46296 24.299 4.36696 24.315 4.29996 24.348C4.32196 24.505 4.28996 24.634 4.21996 24.778C4.15096 24.917 4.01996 25.046 4.04996 25.224C3.93496 25.402 3.94196 25.62 3.86196 25.802C3.84496 25.842 3.83196 25.882 3.82196 25.922L3.76696 26.155C3.72696 26.305 3.64696 26.445 3.58096 26.589C3.55896 26.636 3.52596 26.679 3.57296 26.713C3.52296 26.793 3.44496 26.869 3.43296 26.953C3.40796 27.15 3.27496 27.293 3.21296 27.47C3.15996 27.624 3.07596 27.769 3.03296 27.925C2.99996 28.045 2.87296 28.13 2.90896 28.271C2.80996 28.359 2.72196 28.463 2.61196 28.531C2.27796 28.741 1.91796 28.828 1.52896 28.694C1.08996 28.544 0.827956 28.097 0.916956 27.648C0.940956 27.53 0.976956 27.413 1.01696 27.299C1.16596 26.873 1.34596 26.456 1.46096 26.022C1.56096 25.65 1.73496 25.313 1.86096 24.955C1.88696 24.878 1.88396 24.791 1.90896 24.714C1.95996 24.561 1.98496 24.404 2.09996 24.268C2.17396 24.18 2.17096 24.03 2.20396 23.908C2.22796 23.817 2.22896 23.708 2.28396 23.639C2.42796 23.455 2.48296 23.233 2.52996 23.023C2.59496 22.736 2.71796 22.472 2.80196 22.193L2.99396 21.633C3.04796 21.458 3.07396 21.274 3.13596 21.102C3.21096 20.886 3.31496 20.681 3.33196 20.449C3.62196 19.849 3.74396 19.193 3.99396 18.579C4.07596 18.379 4.12896 18.169 4.20496 17.966C4.31996 17.659 4.51196 17.411 4.79896 17.236C5.31596 16.923 6.08596 17.027 6.44696 17.538C6.60396 17.758 6.70496 18.008 6.75196 18.275C6.86896 18.931 6.98496 19.587 7.09596 20.245C7.14596 20.545 7.18296 20.848 7.23096 21.149C7.24396 21.236 7.27596 21.319 7.29596 21.405C7.30396 21.441 7.30196 21.478 7.30296 21.515C7.30296 21.546 7.29096 21.584 7.30296 21.608C7.39796 21.786 7.36796 21.993 7.44596 22.174C7.46296 22.215 7.45596 22.267 7.45696 22.314C7.45696 22.344 7.44396 22.396 7.45596 22.402C7.60296 22.479 7.51496 22.632 7.56996 22.737C7.57796 22.753 7.58096 22.776 7.57596 22.793C7.49596 23.073 7.60996 23.332 7.65596 23.598C7.69996 23.851 7.71096 24.111 7.77296 24.359C7.81596 24.53 7.81496 24.702 7.84596 24.87C7.85796 24.936 7.91096 24.995 7.95596 25.077C7.91996 25.144 7.95596 25.223 7.98996 25.317C8.07996 25.569 8.23996 25.802 8.20096 26.094C8.19096 26.173 8.27396 26.263 8.31696 26.354C8.20096 26.517 8.27696 26.695 8.33396 26.86C8.38696 27.013 8.42996 27.16 8.42096 27.322C8.40896 27.539 8.50596 27.73 8.57396 27.928C8.58696 27.964 8.60096 27.999 8.61796 28.033C8.68796 28.172 8.67396 28.297 8.61796 28.446C8.55696 28.606 8.51996 28.8 8.55796 28.96C8.59596 29.12 8.60096 29.314 8.75396 29.443C8.79396 29.476 8.80796 29.558 8.80796 29.618C8.80896 29.744 8.79196 29.868 8.78396 29.994C8.77996 30.07 8.75596 30.154 8.77896 30.22C8.85596 30.443 8.84896 30.67 8.85596 30.899C8.85796 30.961 8.84696 31.026 8.92696 31.059C8.94996 31.069 8.97196 31.108 8.97296 31.134C8.97796 31.265 8.97196 31.397 8.97996 31.528C8.98296 31.579 9.00296 31.637 9.03296 31.678C9.06696 31.723 9.12196 31.753 9.18996 31.808C9.22696 31.696 9.27796 31.593 9.29396 31.486C9.34896 31.121 9.38596 30.755 9.44096 30.391C9.52896 29.8 9.62696 29.211 9.71996 28.62C9.75996 28.368 9.79496 28.116 9.83396 27.865C9.86196 27.683 9.89096 27.501 9.92396 27.319C10.013 26.819 10.119 26.319 10.192 25.817C10.27 25.274 10.381 24.74 10.498 24.205C10.545 23.995 10.588 23.783 10.63 23.571L10.875 22.298C10.903 22.161 10.938 22.025 10.97 21.889L11.195 20.962C11.219 20.864 11.25 20.767 11.275 20.67C11.461 19.956 11.643 19.241 11.834 18.529C11.888 18.327 11.973 18.134 12.028 17.933C12.069 17.781 12.077 17.619 12.115 17.466C12.195 17.152 12.282 16.84 12.369 16.528C12.461 16.196 12.559 15.867 12.65 15.535C12.708 15.328 12.758 15.118 12.812 14.909C12.815 14.897 12.814 14.881 12.822 14.873C12.942 14.742 12.922 14.581 12.926 14.423C12.926 14.38 12.928 14.328 12.951 14.295C13.101 14.075 13.108 13.812 13.181 13.571C13.285 13.217 13.382 12.864 13.547 12.53C13.644 12.332 13.699 12.112 13.755 11.898C13.8 11.725 13.834 11.555 13.938 11.4C14.003 11.302 14.032 11.178 14.073 11.065C14.34 10.335 14.607 9.60501 14.871 8.87501C14.995 8.53301 15.107 8.18801 15.233 7.84801C15.43 7.31601 15.634 6.78801 15.834 6.25701C16.042 5.70301 16.247 5.14701 16.458 4.59401C16.535 4.39201 16.626 4.19401 16.706 3.99401C16.812 3.72801 16.916 3.46101 17.016 3.19401C17.164 2.80601 17.34 2.43401 17.547 2.07301C17.74 1.73501 17.983 1.44701 18.261 1.18301C18.559 0.901006 18.898 0.683006 19.313 0.610006ZM16.66 22.897L16.8 22.906C17.027 22.937 17.166 23.059 17.228 23.248C17.268 23.366 17.337 23.48 17.301 23.622C17.286 23.68 17.37 23.76 17.414 23.841C17.273 23.914 17.244 23.948 17.277 24.086C17.305 24.199 17.362 24.306 17.417 24.439C17.38 24.503 17.352 24.59 17.399 24.695C17.419 24.739 17.383 24.815 17.355 24.867C17.301 24.964 17.283 25.059 17.289 25.17C17.295 25.297 17.272 25.428 17.25 25.555C17.215 25.759 17.215 25.972 17.099 26.159C17.083 26.183 17.089 26.219 17.089 26.25C17.084 26.522 17.089 26.794 17.075 27.065C17.067 27.197 17.045 27.336 16.988 27.455C16.933 27.571 16.942 27.682 16.933 27.798C16.923 27.926 16.903 28.054 16.883 28.181C16.859 28.327 16.827 28.472 16.805 28.618C16.761 28.911 16.715 29.205 16.685 29.499C16.666 29.675 16.688 29.853 16.675 30.029C16.655 30.279 16.726 30.528 16.63 30.779C16.565 30.95 16.568 31.143 16.536 31.326C16.525 31.391 16.496 31.454 16.479 31.519C16.463 31.582 16.453 31.646 16.439 31.718L16.619 31.728L16.577 31.906C16.496 31.93 16.38 31.871 16.368 32C16.367 32.016 16.323 32.045 16.31 32.04C16.184 31.996 16.154 32.104 16.088 32.156C15.828 32.358 15.56 32.549 15.254 32.696C15.088 32.775 14.924 32.819 14.74 32.803C14.368 32.773 14.142 32.587 14.124 32.241C14.104 31.853 14.115 31.463 14.125 31.073C14.135 30.708 14.163 30.344 14.179 29.979C14.194 29.659 14.184 29.34 14.258 29.023C14.291 28.877 14.26 28.719 14.258 28.567C14.258 28.537 14.248 28.492 14.265 28.479C14.318 28.438 14.329 28.389 14.33 28.339V28.237L14.39 27.163C14.401 26.93 14.408 26.697 14.416 26.463C14.418 26.433 14.416 26.402 14.418 26.371C14.448 26.044 14.471 25.717 14.51 25.391C14.56 24.972 14.664 24.567 14.852 24.179C15.036 23.8 15.309 23.505 15.677 23.272C15.899 23.13 16.127 23.007 16.387 22.937C16.523 22.9 16.657 22.886 16.801 22.906L16.66 22.897ZM23.298 20.419C23.508 20.419 23.684 20.48 23.787 20.683C23.857 20.822 23.934 20.957 23.993 21.1C24.021 21.168 24.017 21.251 24.023 21.328C24.024 21.358 24.005 21.388 24.007 21.417C24.033 21.855 23.742 22.097 23.452 22.337C23.25 22.504 23.044 22.667 22.833 22.823C22.5 23.069 22.273 23.404 22.051 23.747C21.996 23.833 21.955 23.921 21.954 24.031C21.954 24.101 21.9 24.167 21.881 24.238C21.846 24.367 21.848 24.502 21.788 24.629C21.753 24.703 21.772 24.802 21.765 24.92C21.675 24.98 21.654 25.101 21.654 25.206C21.654 25.421 21.598 25.632 21.636 25.851C21.656 25.975 21.608 26.111 21.602 26.241C21.579 26.752 21.553 27.263 21.542 27.774C21.534 28.126 21.509 28.478 21.453 28.823C21.402 29.146 21.255 29.437 21.015 29.673C20.655 30.029 20.209 30.245 19.797 30.321C19.578 30.361 19.35 30.24 19.223 30.012C19.141 29.865 19.083 29.707 19.083 29.533C19.081 29.317 19.098 29.097 19.073 28.883C19.048 28.675 19.125 28.483 19.123 28.281C19.121 28.051 19.177 27.825 19.108 27.589C19.072 27.469 19.136 27.319 19.15 27.183C19.157 27.114 19.169 27.042 19.155 26.976C19.122 26.821 19.177 26.672 19.168 26.521C19.168 26.515 19.172 26.509 19.171 26.503C19.157 26.306 19.185 26.119 19.258 25.932C19.293 25.842 19.274 25.73 19.283 25.629C19.301 25.431 19.324 25.234 19.338 25.036C19.359 24.718 19.375 24.4 19.391 24.081C19.408 23.751 19.414 23.419 19.437 23.089C19.462 22.739 19.539 22.396 19.692 22.08C19.846 21.762 20.109 21.545 20.416 21.383C20.72 21.223 21.048 21.153 21.389 21.117C21.612 21.093 21.826 21.024 22.026 20.911C22.136 20.849 22.26 20.817 22.376 20.766C22.496 20.711 22.613 20.648 22.733 20.592C22.913 20.506 23.093 20.42 23.298 20.419ZM36.724 13.821C36.949 13.835 37.064 13.948 37.059 14.142C37.055 14.263 37.129 14.354 37.185 14.442C37.259 14.559 37.23 14.671 37.229 14.784C37.229 14.878 37.213 14.984 37.16 15.063C37.097 15.156 37.144 15.237 37.137 15.323C37.125 15.483 37.114 15.649 37 15.806C37.024 15.833 37.065 15.859 37.061 15.879C37.036 15.999 37 16.119 36.97 16.24C36.92 16.438 36.927 16.636 36.981 16.832C37.003 16.912 37.006 16.987 36.975 17.068C36.956 17.121 36.977 17.185 36.982 17.244C36.982 17.256 36.999 17.267 36.998 17.278C36.988 17.486 36.974 17.695 36.968 17.903C36.966 18.005 36.974 18.108 36.99 18.209C37.016 18.369 37.006 18.508 36.87 18.642C36.815 18.697 36.838 18.815 36.834 18.905C36.831 18.992 36.834 19.078 36.948 19.128C36.982 19.143 36.995 19.192 37.04 19.258L36.817 19.221C36.841 19.273 36.858 19.317 36.883 19.358C36.903 19.394 36.933 19.425 36.97 19.474L36.812 19.464C36.795 19.579 36.77 19.694 36.762 19.809C36.742 20.162 36.722 20.516 36.711 20.869C36.71 20.893 36.713 20.917 36.718 20.94L36.754 21.082C36.764 21.136 36.777 21.191 36.772 21.244C36.766 21.316 36.731 21.387 36.734 21.458C36.744 21.66 36.586 21.801 36.48 21.951C36.347 22.139 36.163 22.303 35.936 22.418C35.7 22.538 35.463 22.656 35.222 22.766C35.036 22.851 34.839 22.906 34.622 22.896C34.166 22.871 33.945 22.647 33.934 22.267C33.924 21.952 33.963 21.634 33.994 21.319C34.044 20.824 34.108 20.33 34.164 19.835C34.24 19.155 34.308 18.475 34.392 17.795C34.466 17.19 34.557 16.587 34.64 15.983C34.657 15.853 34.677 15.725 34.687 15.595C34.713 15.252 34.857 14.94 35.043 14.645C35.232 14.345 35.524 14.121 35.864 13.945C36.131 13.809 36.429 13.802 36.724 13.821ZM17.635 17.116C17.901 17.112 17.995 17.173 18.071 17.363C18.095 17.423 18.113 17.487 18.147 17.542C18.297 17.782 18.244 18.033 18.157 18.267C18.103 18.409 17.974 18.525 17.879 18.653C17.876 18.657 17.866 18.657 17.864 18.661C17.684 18.963 17.368 19.113 17.084 19.297C16.938 19.391 16.78 19.469 16.622 19.544C16.398 19.65 16.177 19.57 16.006 19.453C15.852 19.347 15.769 19.165 15.765 18.963C15.761 18.795 15.801 18.635 15.876 18.49C15.953 18.34 15.986 18.17 16.112 18.043C16.209 17.947 16.292 17.834 16.399 17.75C16.603 17.59 16.812 17.435 17.034 17.3C17.227 17.183 17.448 17.115 17.635 17.116ZM37.003 9.72801C37.216 9.67401 37.425 9.65901 37.636 9.74301C37.698 9.76801 37.77 9.76301 37.846 9.77301C37.924 9.91901 38.044 10.043 38.059 10.238C38.067 10.358 38.053 10.458 38.027 10.574C37.962 10.874 37.781 11.085 37.597 11.301C37.563 11.341 37.532 11.382 37.507 11.428C37.315 11.77 37.003 11.964 36.674 12.11C36.478 12.197 36.244 12.164 36.034 12.082C35.942 12.045 35.848 11.997 35.774 11.931C35.716 11.879 35.675 11.796 35.65 11.718C35.471 11.178 35.676 10.739 36.012 10.354C36.28 10.048 36.609 9.82701 37.003 9.72801Z" fill="#E10A0A"/>
</svg>
