<svg width="16" height="16" viewBox="0 0 16 16" fill="none" xmlns="http://www.w3.org/2000/svg">
<path d="M3.427 1.40909C3.56228 1.15717 3.82508 1 4.11102 1C4.39696 1 4.65976 1.15717 4.79504 1.40909L5.39832 2.51317C5.4698 2.64443 5.57763 2.75226 5.70888 2.82374L6.81295 3.42703C7.06485 3.56231 7.22205 3.82511 7.22205 4.11105C7.22205 4.397 7.06485 4.6598 6.81295 4.79508L5.70888 5.39837C5.57763 5.46985 5.4698 5.57768 5.39832 5.70894L4.79504 6.81301C4.65976 7.06491 4.39696 7.22212 4.11102 7.22212C3.82508 7.22212 3.56228 7.06491 3.427 6.81301L2.82372 5.70894C2.75224 5.57768 2.64441 5.46985 2.51316 5.39837L1.40909 4.79508C1.15717 4.6598 1 4.397 1 4.11105C1 3.82511 1.15717 3.56231 1.40909 3.42703L2.51316 2.82374C2.64441 2.75226 2.75224 2.64443 2.82372 2.51317L3.427 1.40909ZM12.1537 4.41798C12.2551 4.22905 12.4523 4.11117 12.6667 4.11117C12.8812 4.11117 13.0783 4.22905 13.1797 4.41798L13.6322 5.24605C13.6858 5.34449 13.7667 5.42537 13.8651 5.47898L14.6932 5.93144C14.8821 6.0329 15 6.23 15 6.44446C15 6.65891 14.8821 6.856 14.6932 6.95747L13.8651 7.40996C13.7667 7.46352 13.6858 7.54446 13.6322 7.64289L13.1797 8.4709C13.0783 8.65991 12.8812 8.77777 12.6667 8.77777C12.4523 8.77777 12.2551 8.65991 12.1537 8.4709L11.7013 7.64289C11.6476 7.54446 11.5668 7.46352 11.4684 7.40996L10.6403 6.95747C10.4513 6.856 10.3335 6.65891 10.3335 6.44446C10.3335 6.23 10.4513 6.0329 10.6403 5.93144L11.4684 5.47898C11.5668 5.42537 11.6476 5.34449 11.7013 5.24605L12.1537 4.41798ZM7.0126 9.91374C7.13093 9.69333 7.36091 9.55579 7.6111 9.55579C7.86129 9.55579 8.09126 9.69333 8.20959 9.91374L8.73749 10.8798C8.8 10.9946 8.89439 11.089 9.00922 11.1515L9.97522 11.6794C10.1956 11.7978 10.3332 12.0277 10.3332 12.2779C10.3332 12.5281 10.1956 12.7581 9.97522 12.8764L9.00922 13.4043C8.89439 13.4668 8.8 13.5612 8.73749 13.676L8.20959 14.6421C8.09126 14.8625 7.86129 15 7.6111 15C7.36091 15 7.13093 14.8625 7.0126 14.6421L6.4847 13.676C6.42216 13.5612 6.32781 13.4668 6.21296 13.4043L5.24694 12.8764C5.02652 12.7581 4.889 12.5281 4.889 12.2779C4.889 12.0277 5.02652 11.7978 5.24694 11.6794L6.21296 11.1515C6.32781 11.089 6.42216 10.9946 6.4847 10.8798L7.0126 9.91374Z" stroke="#3C3C3C" stroke-width="1.5" stroke-linecap="round" stroke-linejoin="round"/>
<path d="M1.81664 10.3724C1.81664 10.3938 1.79923 10.4113 1.77775 10.4113C1.75627 10.4113 1.73886 10.3938 1.73886 10.3724C1.73886 10.3508 1.75627 10.3335 1.77775 10.3335M1.77775 10.3335C1.79922 10.3335 1.81664 10.3508 1.81664 10.3724ZM13.4835 12.6669C13.4835 12.6883 13.4661 12.7057 13.4446 12.7057C13.4231 12.7057 13.4057 12.6883 13.4057 12.6669C13.4057 12.6454 13.4231 12.628 13.4446 12.628M13.4446 12.628C13.4661 12.628 13.4835 12.6454 13.4835 12.6669ZM10.4112 1.77765C10.4112 1.79913 10.3938 1.81655 10.3724 1.81655C10.3509 1.81655 10.3335 1.79913 10.3335 1.77765C10.3335 1.75617 10.3509 1.73876 10.3724 1.73876" stroke="#3C3C3C" stroke-width="1.5" stroke-linecap="round" stroke-linejoin="round"/>
<path d="M10.3724 1.73876C10.3827 1.73876 10.3926 1.74286 10.3999 1.75016C10.4072 1.75745 10.4112 1.76733 10.4112 1.77765" stroke="#3C3C3C" stroke-width="1.5" stroke-linecap="round" stroke-linejoin="round"/>
</svg>
